<?xml version="1.0" standalone="no"?>
<!DOCTYPE svg PUBLIC "-//W3C//DTD SVG 20010904//EN"
 "http://www.w3.org/TR/2001/REC-SVG-20010904/DTD/svg10.dtd">
<svg version="1.0" xmlns="http://www.w3.org/2000/svg"
 width="1024.000000pt" height="1024.000000pt" viewBox="0 0 1024.000000 1024.000000"
 preserveAspectRatio="xMidYMid meet">

<g transform="translate(0.000000,1024.000000) scale(0.100000,-0.100000)"
fill="#000000" stroke="none">
<path d="M4835 8210 c-499 -56 -969 -226 -1385 -502 -391 -259 -720 -614 -948
-1023 -340 -608 -471 -1326 -366 -2000 39 -254 95 -457 172 -627 l37 -83 5
-835 5 -835 29 -52 c33 -60 82 -98 146 -112 29 -7 368 -11 950 -11 842 0 907
1 940 18 19 9 41 29 50 45 13 24 13 30 0 54 -9 15 -45 44 -80 64 -147 82 -508
269 -550 285 -39 14 -107 16 -545 18 l-500 1 -5 1197 -5 1197 -40 41 c-22 23
-86 76 -143 118 l-104 77 7 110 c20 342 109 665 275 1000 149 300 293 501 525
731 360 357 815 598 1319 699 463 92 962 45 1411 -135 169 -68 222 -92 327
-151 578 -324 1003 -831 1212 -1446 131 -387 174 -755 136 -1179 l-12 -141 42
-114 c23 -63 61 -163 83 -224 41 -108 42 -114 47 -265 3 -95 9 -154 15 -153
13 2 98 246 136 393 73 278 106 591 95 905 -14 445 -119 859 -326 1280 -244
498 -651 937 -1138 1228 -359 214 -737 347 -1177 413 -119 18 -524 27 -640 14z
m604 -26 c147 -21 331 -59 457 -95 118 -33 293 -96 309 -111 5 -5 -19 2 -55
15 -244 92 -542 162 -805 188 -140 14 -433 6 -600 -15 -113 -15 -307 -54 -405
-80 -30 -9 -56 -14 -58 -12 -15 16 336 90 543 115 125 15 497 12 614 -5z m841
-234 c8 -5 11 -10 5 -10 -5 0 -17 5 -25 10 -8 5 -10 10 -5 10 6 0 17 -5 25
-10z m65 -30 c3 -6 -1 -7 -9 -4 -18 7 -21 14 -7 14 6 0 13 -4 16 -10z"/>
<path d="M4750 7350 c-194 -41 -313 -102 -428 -218 l-83 -83 -46 15 c-54 19
-183 21 -251 5 -77 -18 -243 -104 -313 -162 -160 -133 -274 -319 -309 -506 -7
-37 -21 -67 -48 -100 -76 -92 -131 -218 -158 -361 -24 -127 -15 -353 19 -482
70 -264 254 -525 471 -667 169 -110 354 -151 527 -117 63 12 67 11 92 -10 14
-12 52 -32 84 -44 78 -30 163 -24 242 17 39 20 63 27 77 22 10 -4 31 -8 47 -8
l27 -1 0 -206 c0 -208 4 -234 39 -261 21 -16 81 -16 102 0 35 27 39 53 39 284
l0 229 31 30 c52 49 73 100 73 179 0 108 -47 180 -144 224 -147 67 -321 -39
-339 -207 l-6 -57 -53 -3 -53 -3 -69 67 -69 66 -33 -20 c-50 -30 -134 -52
-203 -52 -125 0 -244 49 -353 146 l-63 57 2 60 3 60 -47 17 c-55 21 -76 43
-118 126 -44 88 -69 193 -76 322 l-6 112 75 0 c58 0 79 -4 89 -17 23 -26 91
-53 139 -53 91 0 187 83 206 178 l7 32 281 0 c261 0 283 1 313 20 63 38 67
152 7 199 -31 24 -84 36 -121 26 -15 -3 -41 -22 -59 -41 -25 -26 -41 -34 -69
-34 l-36 0 3 148 3 147 315 5 c337 5 346 7 369 57 7 16 11 133 11 328 l0 305
83 0 c95 0 164 -16 235 -55 51 -28 69 -49 52 -60 -6 -4 -10 -28 -10 -54 0
-100 80 -189 179 -199 138 -13 242 130 184 253 -23 49 -9 60 75 59 54 0 81 -6
132 -31 86 -41 135 -86 125 -116 -21 -66 -35 -124 -35 -143 0 -14 -35 -53
-107 -119 -60 -54 -122 -112 -139 -127 -30 -28 -32 -28 -77 -17 -61 17 -116 0
-167 -51 -64 -64 -70 -174 -14 -248 49 -63 35 -62 667 -62 l573 0 10 -37 c9
-38 18 -44 86 -58 32 -6 60 -53 84 -142 24 -88 21 -296 -5 -397 -22 -81 -78
-216 -91 -216 -4 0 -19 9 -34 21 -20 16 -26 29 -26 59 0 31 -6 44 -35 69 -120
105 -276 -76 -164 -189 17 -16 41 -30 53 -30 13 0 40 -18 65 -44 l43 -44 -34
-25 c-58 -43 -120 -69 -177 -74 l-56 -4 -102 112 -102 112 16 31 c9 18 16 55
16 88 0 111 -87 205 -199 215 -86 8 -136 -9 -196 -67 l-51 -49 -528 -3 -527
-3 -26 -24 c-33 -31 -41 -72 -22 -110 22 -42 73 -53 226 -51 69 1 135 2 147 1
13 -1 59 -40 120 -103 54 -57 158 -165 232 -240 74 -76 133 -140 130 -142 -3
-3 -73 -6 -156 -6 -183 -2 -219 -9 -255 -50 l-28 -30 0 -461 0 -460 25 -24
c37 -38 95 -35 129 6 l26 31 0 399 0 399 203 0 203 0 55 -30 c211 -114 493
-63 627 113 22 29 44 62 50 73 8 16 25 23 63 28 311 41 551 304 641 701 29
129 29 348 -1 460 -25 95 -66 181 -119 251 -33 43 -40 60 -46 118 -9 91 -57
236 -103 316 -21 35 -72 99 -114 142 -86 89 -193 148 -282 156 -44 4 -60 12
-102 49 -27 24 -69 49 -91 56 -31 9 -52 25 -82 63 -66 83 -140 134 -262 180
-66 24 -89 28 -195 28 -110 0 -126 -2 -201 -30 l-80 -31 -77 39 c-113 56 -215
78 -367 77 -81 0 -155 -7 -210 -19z m315 -4 c11 -2 -10 -4 -47 -5 -38 0 -68 2
-68 7 0 7 67 6 115 -2z m-162 -3 c-13 -2 -35 -2 -50 0 -16 2 -5 4 22 4 28 0
40 -2 28 -4z m-90 -10 c-7 -2 -21 -2 -30 0 -10 3 -4 5 12 5 17 0 24 -2 18 -5z
m347 -3 c20 -6 21 -8 5 -8 -11 0 -33 4 -50 8 -27 7 -27 8 -5 8 14 0 36 -4 50
-8z m-407 -7 c-7 -2 -19 -2 -25 0 -7 3 -2 5 12 5 14 0 19 -2 13 -5z m970 -30
c-24 -2 -62 -2 -85 0 -24 2 -5 4 42 4 47 0 66 -2 43 -4z m-1003 -436 c0 -164
-3 -217 -14 -232 -13 -18 -35 -18 -507 -16 -272 1 -496 5 -498 7 -8 8 63 75
122 116 71 49 131 76 192 87 46 9 46 8 70 -29 55 -87 126 -104 206 -50 l44 29
25 -24 c56 -53 129 -55 180 -4 47 47 44 128 -6 180 l-28 29 34 35 c39 40 122
85 157 85 l23 0 0 -213z m1533 2 c21 -23 27 -39 27 -75 0 -39 -5 -51 -35 -81
-33 -33 -39 -35 -86 -31 -71 7 -104 41 -104 107 0 35 6 55 20 71 50 57 130 61
178 9z m218 -216 c86 -71 179 -219 179 -285 l0 -28 -465 0 c-256 0 -465 3
-465 7 0 4 57 65 127 135 117 117 153 145 153 118 0 -16 76 -61 121 -71 93
-21 204 30 255 117 14 24 31 44 37 44 7 0 33 -17 58 -37z m-2451 -363 l0 -150
-112 0 c-101 0 -118 3 -162 25 -27 14 -63 25 -79 25 -80 0 -163 -51 -193 -119
-14 -33 -23 -40 -51 -43 -18 -2 -33 0 -33 4 0 5 11 30 24 56 24 46 76 102 126
135 22 15 24 24 25 88 0 67 2 72 33 100 l32 29 195 0 195 0 0 -150z m-319
-258 c27 -23 30 -75 6 -99 -20 -20 -79 -22 -101 -4 -23 19 -20 77 4 101 25 25
61 26 91 2z m2320 -591 c16 -16 29 -39 29 -51 0 -28 -59 -88 -85 -85 -36 3
-65 16 -65 30 0 7 -5 15 -12 17 -22 8 -11 72 17 96 37 31 80 29 116 -7z m-317
-137 c25 -4 46 -12 46 -19 0 -23 71 -94 115 -115 34 -17 63 -22 113 -21 l68 1
45 -48 c24 -26 59 -63 77 -83 l32 -35 -24 -56 c-25 -55 -62 -95 -120 -125 -38
-21 -129 -23 -174 -4 l-32 13 35 39 c30 33 35 46 35 88 0 87 -66 156 -151 156
-43 0 -53 -4 -85 -36 -26 -26 -37 -47 -41 -78 l-6 -43 -139 139 c-77 76 -157
159 -180 186 l-40 47 190 0 c104 0 210 -3 236 -6z m-930 -298 c99 -41 80 -162
-25 -158 -23 1 -47 6 -54 12 -6 5 -15 7 -19 3 -11 -12 -26 19 -26 55 0 45 16
71 53 87 40 18 32 17 71 1z"/>
<path d="M5093 6740 c-61 -37 -80 -114 -45 -179 20 -37 73 -71 110 -71 38 0
93 31 113 64 71 116 -63 256 -178 186z"/>
<path d="M4891 6291 c-60 -23 -68 -28 -129 -85 -95 -89 -125 -215 -88 -373 l8
-33 -249 -2 c-243 -3 -249 -3 -282 20 -51 33 -111 30 -155 -8 -66 -59 -69
-135 -7 -194 37 -36 105 -46 152 -22 27 13 72 16 291 16 l258 0 44 40 44 41
45 -31 c73 -49 115 -62 198 -63 99 0 179 34 245 105 169 181 123 469 -93 575
-76 37 -202 43 -282 14z m212 -135 c103 -43 155 -179 108 -281 -27 -59 -42
-68 -103 -61 -29 3 -93 6 -143 7 -49 1 -98 6 -108 11 -26 13 -57 85 -57 133 0
74 50 149 125 188 37 20 135 22 178 3z"/>
<path d="M6303 6026 c-50 -24 -104 -81 -118 -127 -6 -18 -21 -19 -321 -19
l-315 0 -24 -26 c-35 -38 -34 -87 4 -125 l29 -29 315 0 315 0 26 -35 c89 -116
263 -123 368 -15 90 94 92 217 4 317 -74 85 -180 107 -283 59z m156 -130 c50
-27 66 -95 31 -139 -17 -22 -26 -25 -58 -20 -20 3 -50 11 -65 19 -26 12 -28
12 -23 -4 4 -10 -2 -6 -14 8 -65 81 33 185 129 136z"/>
<path d="M3630 5642 c-89 -44 -92 -181 -5 -238 87 -57 216 31 202 137 -13 95
-109 145 -197 101z"/>
<path d="M4304 5415 c-34 -18 -74 -80 -74 -116 1 -42 37 -107 69 -123 68 -36
159 -7 187 59 26 63 13 114 -39 164 -33 30 -100 38 -143 16z"/>
<path d="M3910 5368 c-54 -28 -80 -62 -87 -116 -8 -61 4 -108 39 -148 40 -45
77 -64 128 -64 88 0 160 64 168 151 6 64 -2 92 -40 135 -59 66 -131 81 -208
42z"/>
<path d="M7440 3610 l0 -1080 -85 0 c-80 0 -88 -2 -110 -26 -34 -37 -34 -92 0
-126 23 -23 35 -26 127 -30 111 -6 152 1 191 32 60 47 57 2 57 1003 l0 915
-54 134 c-29 73 -62 153 -73 178 -11 25 -23 53 -26 63 -24 68 -27 -33 -27
-1063z"/>
<path d="M6905 4434 l-190 -174 -50 -1 c-27 -1 -158 -4 -290 -7 l-240 -7 -65
-33 c-73 -36 -465 -303 -522 -355 -31 -27 -38 -41 -38 -70 0 -44 38 -93 79
-102 44 -10 80 10 306 171 116 82 224 158 240 169 28 18 55 20 398 23 l367 4
0 -161 0 -161 -287 0 c-319 0 -389 -7 -472 -50 -90 -45 -354 -223 -384 -259
-40 -47 -37 -93 8 -138 33 -33 39 -35 80 -31 29 4 66 20 107 46 35 23 76 46
91 51 18 7 175 11 443 11 l414 0 0 -90 0 -90 -413 0 -414 0 -75 -57 c-42 -32
-146 -114 -231 -183 -192 -155 -216 -193 -158 -251 49 -49 78 -41 230 60 l84
56 566 5 c593 5 597 6 621 50 16 30 14 1750 -2 1749 -7 0 -98 -79 -203 -175z"/>
<path d="M3107 4583 c-4 -3 -7 -350 -7 -769 0 -570 3 -770 12 -789 24 -52 41
-55 371 -55 239 0 314 -3 353 -15 27 -8 128 -60 224 -116 96 -55 225 -129 286
-165 89 -51 121 -64 153 -64 73 0 128 41 137 102 12 70 -44 128 -123 128 -21
0 -51 8 -68 18 -126 77 -460 259 -514 280 -64 26 -74 27 -341 32 l-275 5 0
160 0 160 245 3 c135 2 259 0 275 -3 20 -3 95 -61 230 -180 222 -194 261 -217
321 -194 48 18 78 59 77 103 -1 42 -19 67 -96 131 -33 28 -126 107 -206 178
-92 80 -170 139 -211 160 l-64 32 -283 5 -283 5 -2 160 -3 160 248 3 c144 1
264 -2 285 -8 20 -5 96 -53 167 -107 232 -173 461 -340 483 -352 55 -29 146 5
165 63 14 41 -12 87 -70 127 -26 18 -166 120 -310 226 -144 106 -288 206 -320
221 -56 26 -65 27 -253 30 l-195 3 -40 32 c-32 25 -276 225 -346 284 -9 7 -19
10 -22 6z"/>
<path d="M4984 3469 c-71 -27 -137 -88 -171 -157 -24 -48 -28 -69 -28 -137 1
-67 5 -89 28 -135 63 -124 158 -184 292 -185 73 0 86 3 144 35 237 128 226
461 -19 574 -70 33 -170 35 -246 5z"/>
<path d="M5010 2461 c-82 -27 -159 -91 -198 -165 -24 -45 -27 -62 -27 -146 0
-80 4 -102 23 -138 35 -66 88 -119 150 -149 78 -37 203 -40 273 -5 73 36 125
87 160 158 27 55 32 76 32 137 0 88 -23 146 -84 212 -64 70 -127 98 -224 101
-44 2 -91 0 -105 -5z"/>
<path d="M5785 2321 c-86 -36 -78 -156 12 -180 24 -7 242 -9 590 -8 542 2 552
2 580 23 61 45 65 107 9 148 -27 21 -39 21 -599 23 -315 1 -581 -2 -592 -6z"/>
</g>
</svg>
